<svg xmlns="http://www.w3.org/2000/svg" viewBox="0 0 731 227" width="731" height="227">
	<style>
		tspan { white-space:pre }
		.shp0 { fill: none;stroke: #4285f4;stroke-width: 2;stroke-dasharray: 8,4 } 
		.shp1 { fill: none;stroke: #ea4335;stroke-width: 2;stroke-dasharray: 8,4 } 
		.shp2 { fill: #fafafa } 
		.shp3 { fill: #0090ff } 
	</style>
	<g id="Hero">
		<g id="Group 228">
			<g id="Center Graphic">
				<g id="Left-Arrow">
					<path id="Shape 2" class="shp0" d="M1.69 189C1.69 189 288.5 290.14 459.61 119C459.61 119 520.73 43.88 594.59 122C594.59 122 662.26 201.23 519.6 163C519.6 163 411.57 91.96 679.57 21" />
					<path id="Shape 2 copy" class="shp1" d="M1.69 194C1.69 194 288.5 295.14 459.61 124C459.61 124 520.73 48.88 594.59 127C594.59 127 662.26 206.23 519.6 168C519.6 168 411.57 96.96 679.57 26" />
					<path id="Rectangle 3" class="shp2" d="M667.58 19L685.57 19L685.57 32L664.58 34L667.58 19Z" />
					<g id="Group 227">
						<path id="Forma 1" class="shp3" d="M729.15 9.91C729.15 9.91 729.15 9.9 729.16 9.89C729.16 9.89 729.16 9.88 729.17 9.87C729.17 9.87 729.17 9.86 729.17 9.85C729.18 9.85 729.18 9.84 729.18 9.84C729.18 9.83 729.19 9.82 729.19 9.82C729.19 9.81 729.19 9.8 729.2 9.8C729.2 9.79 729.2 9.78 729.2 9.78C729.2 9.77 729.21 9.76 729.21 9.76C729.21 9.75 729.21 9.74 729.21 9.74C729.22 9.73 729.22 9.72 729.22 9.71C729.22 9.71 729.22 9.7 729.22 9.7C729.23 9.69 729.23 9.68 729.23 9.68C729.23 9.67 729.23 9.66 729.23 9.66C729.23 9.65 729.23 9.64 729.24 9.63C729.24 9.63 729.24 9.62 729.24 9.62C729.24 9.62 729.24 9.62 729.24 9.62C729.24 9.61 729.24 9.6 729.24 9.6C729.24 9.59 729.24 9.58 729.24 9.57C729.24 9.56 729.24 9.55 729.24 9.54C729.24 9.54 729.24 9.53 729.24 9.53C729.24 9.52 729.24 9.52 729.24 9.51C729.24 9.5 729.24 9.49 729.24 9.49C729.24 9.48 729.24 9.47 729.24 9.47C729.24 9.46 729.24 9.46 729.24 9.46C729.24 9.45 729.24 9.45 729.24 9.44C729.24 9.44 729.24 9.43 729.24 9.43C729.24 9.42 729.24 9.41 729.23 9.4C729.23 9.39 729.23 9.38 729.23 9.37C729.23 9.37 729.23 9.36 729.23 9.36C729.23 9.35 729.23 9.35 729.23 9.35C729.22 9.34 729.22 9.33 729.22 9.32C729.22 9.31 729.21 9.3 729.21 9.29C729.21 9.29 729.21 9.28 729.21 9.27C729.2 9.26 729.2 9.25 729.2 9.24C729.19 9.23 729.19 9.22 729.19 9.21C729.18 9.2 729.18 9.2 729.18 9.2C729.18 9.18 729.17 9.17 729.17 9.16C729.16 9.15 729.16 9.14 729.15 9.13C729.15 9.13 729.15 9.12 729.14 9.12C729.14 9.12 729.14 9.11 729.14 9.11C729.14 9.1 729.13 9.1 729.13 9.09C729.12 9.08 729.12 9.07 729.11 9.06C729.11 9.06 729.11 9.05 729.1 9.05C729.1 9.04 729.09 9.03 729.08 9.02C729.07 9.01 729.07 9 729.06 9C729.06 8.99 729.06 8.99 729.06 8.98C729.05 8.97 729.04 8.96 729.03 8.95C729.02 8.95 729.02 8.94 729.01 8.93C729.01 8.93 729 8.93 729 8.92C728.99 8.92 728.99 8.91 728.98 8.91C728.98 8.9 728.97 8.9 728.97 8.89C728.96 8.89 728.96 8.88 728.95 8.88C728.95 8.87 728.94 8.87 728.94 8.87C728.93 8.86 728.93 8.86 728.92 8.85C728.92 8.85 728.91 8.84 728.9 8.84C728.9 8.83 728.89 8.83 728.89 8.83C728.88 8.82 728.88 8.82 728.87 8.81C728.87 8.81 728.86 8.81 728.86 8.8C728.85 8.8 728.84 8.79 728.83 8.79C728.83 8.79 728.83 8.78 728.82 8.78C728.81 8.78 728.81 8.77 728.8 8.77C728.8 8.77 728.79 8.77 728.79 8.76C728.78 8.76 728.77 8.75 728.76 8.75C728.76 8.75 728.75 8.75 728.75 8.74C728.74 8.74 728.73 8.74 728.73 8.74C728.72 8.73 728.72 8.73 728.71 8.73C728.7 8.73 728.7 8.72 728.69 8.72C728.68 8.72 728.67 8.71 728.67 8.71C728.66 8.71 728.66 8.71 728.65 8.71C728.64 8.7 728.64 8.7 728.63 8.7C728.63 8.7 728.62 8.7 728.61 8.69C728.6 8.69 728.59 8.69 728.59 8.69C728.58 8.69 728.58 8.69 728.57 8.69C728.56 8.68 728.56 8.68 728.55 8.68C728.54 8.68 728.54 8.68 728.53 8.68C728.52 8.68 728.51 8.67 728.5 8.67C728.5 8.67 728.5 8.67 728.49 8.67L728.48 8.67C728.48 8.67 728.48 8.67 728.48 8.67L668.85 1.64C668.85 1.64 668.85 1.64 668.85 1.64L668.84 1.64C668.84 1.64 668.84 1.64 668.84 1.64C668.81 1.64 668.79 1.63 668.76 1.63C668.75 1.63 668.74 1.63 668.73 1.63C668.71 1.63 668.69 1.63 668.68 1.64C668.66 1.64 668.65 1.64 668.64 1.64C668.62 1.64 668.61 1.64 668.6 1.65C668.58 1.65 668.57 1.65 668.56 1.65C668.54 1.66 668.53 1.66 668.51 1.66C668.5 1.67 668.49 1.67 668.48 1.68C668.46 1.68 668.45 1.69 668.44 1.69C668.42 1.7 668.41 1.7 668.4 1.71C668.38 1.71 668.37 1.72 668.36 1.73C668.35 1.73 668.33 1.74 668.32 1.75C668.31 1.75 668.3 1.76 668.29 1.77C668.27 1.78 668.25 1.79 668.23 1.81C668.23 1.81 668.22 1.81 668.22 1.82C668.22 1.82 668.22 1.82 668.22 1.82C668.2 1.83 668.17 1.85 668.15 1.87C668.15 1.88 668.14 1.89 668.13 1.89C668.12 1.91 668.11 1.92 668.1 1.93C668.09 1.94 668.08 1.95 668.07 1.96C668.06 1.98 668.05 1.99 668.05 2C668.04 2.01 668.03 2.02 668.02 2.03C668.02 2.04 668.01 2.06 668 2.07C667.99 2.08 667.99 2.09 667.98 2.1C667.98 2.12 667.97 2.13 667.96 2.14C667.96 2.16 667.95 2.17 667.95 2.18C667.94 2.19 667.94 2.21 667.93 2.22C667.93 2.24 667.93 2.25 667.92 2.27C667.92 2.28 667.91 2.29 667.91 2.3C667.91 2.33 667.9 2.36 667.9 2.39C667.9 2.39 667.9 2.39 667.9 2.39C667.9 2.39 667.9 2.39 667.9 2.39C667.89 2.43 667.89 2.47 667.89 2.51C667.89 2.52 667.89 2.52 667.89 2.53C667.89 2.57 667.9 2.61 667.91 2.64C667.91 2.65 667.91 2.66 667.91 2.67C667.92 2.7 667.93 2.73 667.94 2.77C667.94 2.77 667.94 2.78 667.94 2.78C667.96 2.82 667.97 2.85 667.99 2.89C667.99 2.89 668 2.9 668 2.91C668.02 2.93 668.03 2.96 668.05 2.99C668.06 2.99 668.06 3 668.07 3.01C668.07 3.01 668.07 3.01 668.07 3.01L674.94 11.81C675.49 12.51 675.67 13.43 675.43 14.29L670.85 30.38C670.85 30.38 670.85 30.38 670.85 30.39C670.84 30.43 670.83 30.46 670.83 30.5C670.83 30.51 670.83 30.51 670.83 30.52C670.82 30.56 670.82 30.59 670.82 30.63C670.82 30.63 670.82 30.64 670.82 30.64C670.82 30.68 670.83 30.72 670.83 30.76C670.83 30.77 670.84 30.77 670.84 30.78C670.84 30.81 670.85 30.85 670.86 30.88C670.87 30.89 670.87 30.89 670.87 30.9C670.87 30.9 670.87 30.9 670.87 30.91C670.88 30.94 670.9 30.97 670.91 31C670.92 31.01 670.92 31.01 670.93 31.02C670.96 31.09 671.01 31.16 671.07 31.21C671.07 31.22 671.07 31.22 671.08 31.22C671.11 31.25 671.14 31.28 671.17 31.3C671.17 31.3 671.17 31.3 671.17 31.3C671.18 31.31 671.18 31.31 671.18 31.31C671.22 31.33 671.25 31.35 671.28 31.37C671.28 31.37 671.28 31.37 671.29 31.37C671.29 31.37 671.29 31.37 671.3 31.38C671.33 31.39 671.36 31.41 671.4 31.42C671.4 31.42 671.41 31.42 671.42 31.43C671.46 31.44 671.49 31.45 671.53 31.45C671.53 31.45 671.54 31.45 671.54 31.45C671.57 31.46 671.61 31.46 671.65 31.46C671.66 31.46 671.66 31.46 671.67 31.46C671.75 31.46 671.83 31.45 671.9 31.43C671.91 31.43 671.92 31.42 671.93 31.42C671.94 31.42 671.95 31.41 671.97 31.41L683.08 27.28L687.77 43.62C687.77 43.62 687.77 43.62 687.77 43.62C687.78 43.65 687.79 43.67 687.8 43.69C687.8 43.69 687.8 43.7 687.8 43.71C687.81 43.73 687.82 43.74 687.83 43.76C687.83 43.77 687.84 43.78 687.84 43.79C687.85 43.8 687.85 43.81 687.86 43.82C687.87 43.84 687.88 43.85 687.89 43.86C687.89 43.87 687.89 43.87 687.89 43.87C687.91 43.89 687.92 43.91 687.94 43.93C687.94 43.93 687.94 43.93 687.94 43.93C687.94 43.94 687.94 43.94 687.95 43.94C687.96 43.96 687.98 43.98 688 43.99C688.01 44.01 688.02 44.02 688.04 44.03C688.04 44.03 688.05 44.04 688.06 44.05C688.1 44.08 688.15 44.12 688.2 44.14C688.2 44.14 688.21 44.14 688.21 44.14C688.24 44.16 688.27 44.17 688.3 44.18C688.31 44.19 688.32 44.19 688.33 44.19C688.36 44.2 688.4 44.21 688.43 44.22C688.44 44.22 688.44 44.22 688.44 44.22C688.48 44.23 688.51 44.23 688.55 44.23C688.55 44.23 688.56 44.23 688.56 44.23C688.6 44.23 688.64 44.23 688.67 44.23C688.68 44.23 688.69 44.23 688.69 44.23C688.72 44.22 688.75 44.22 688.78 44.21C688.79 44.21 688.8 44.21 688.81 44.2C688.82 44.2 688.82 44.2 688.83 44.2C688.86 44.19 688.89 44.18 688.92 44.17C688.92 44.17 688.93 44.16 688.94 44.16C688.97 44.15 688.99 44.13 689.02 44.11C689.03 44.11 689.04 44.11 689.04 44.1C689.08 44.08 689.11 44.06 689.14 44.03C689.14 44.03 689.14 44.03 689.14 44.03L728.94 10.18C728.94 10.17 728.95 10.16 728.96 10.16C728.96 10.15 728.97 10.15 728.98 10.14C728.98 10.14 728.98 10.13 728.99 10.13C728.99 10.12 729 10.12 729 10.11C729.01 10.11 729.01 10.1 729.02 10.1C729.02 10.09 729.03 10.09 729.03 10.08C729.04 10.08 729.04 10.07 729.04 10.07C729.05 10.06 729.05 10.06 729.06 10.05C729.06 10.04 729.07 10.04 729.07 10.03C729.08 10.03 729.08 10.02 729.08 10.02C729.09 10.01 729.09 10.01 729.1 10C729.1 9.99 729.1 9.99 729.1 9.98C729.11 9.98 729.11 9.97 729.12 9.96C729.12 9.96 729.12 9.95 729.13 9.95C729.13 9.94 729.13 9.93 729.14 9.93C729.14 9.92 729.14 9.92 729.15 9.91ZM677.23 13.56L682.07 13.26C682.54 13.23 682.9 12.83 682.87 12.36C682.84 11.89 682.44 11.53 681.97 11.56L676.92 11.87C676.77 11.47 676.55 11.1 676.29 10.75L670.68 3.57L718.88 9.26L685.61 11.33C685.14 11.36 684.78 11.76 684.81 12.24C684.82 12.55 685.01 12.81 685.27 12.94C685.4 13.01 685.55 13.04 685.71 13.03L721.33 10.82L700.76 17.19C700.31 17.33 700.05 17.81 700.19 18.26C700.26 18.49 700.42 18.66 700.62 18.77C700.81 18.86 701.04 18.89 701.26 18.82L724.67 11.57L689.05 41.88L684.25 25.16C684.15 24.81 683.99 24.5 683.78 24.24L697.52 19.98C697.97 19.84 698.22 19.36 698.09 18.91C697.95 18.46 697.47 18.21 697.02 18.35L680.84 23.36C680.8 23.37 680.77 23.39 680.74 23.4C680.54 23.48 680.35 23.58 680.17 23.7L673.14 28.56L677.06 14.75C677.18 14.36 677.23 13.96 677.23 13.56ZM677.77 27.43L681.13 25.11C681.39 24.93 681.71 24.89 682.01 24.99C682.3 25.1 682.52 25.33 682.61 25.63L682.61 25.63L677.77 27.43Z" />
					</g>
				</g>
			</g>
		</g>
	</g>
</svg>