<svg xmlns="http://www.w3.org/2000/svg" viewBox="0 0 732 226" width="732" height="226">
	<style>
		tspan { white-space:pre }
		.shp0 { fill: none;stroke: #34a853;stroke-width: 2;stroke-dasharray: 8,4 } 
		.shp1 { fill: none;stroke: #fbbc05;stroke-width: 2;stroke-dasharray: 8,4 } 
		.shp2 { fill: #fafafa } 
		.shp3 { fill: #34a853 } 
	</style>
	<g id="Hero">
		<g id="Group 228">
			<g id="Center Graphic">
				<g id="Right-Arrow">
					<path id="Shape 2" class="shp0" d="M729.34 37.68C729.34 37.68 442.54 -63.43 271.44 107.66C271.44 107.66 210.32 182.76 136.47 104.66C136.47 104.66 68.8 25.45 211.45 63.67C211.45 63.67 319.48 134.69 51.49 205.63" />
					<path id="Shape 2 copy" class="shp1" d="M729.34 32.68C729.34 32.68 442.54 -68.43 271.44 102.66C271.44 102.66 210.32 177.76 136.47 99.66C136.47 99.66 68.8 20.45 211.45 58.67C211.45 58.67 319.48 129.69 51.49 200.63" />
					<path id="Rectangle 3" class="shp2" d="M63.48 207.63L45.49 207.63L45.49 194.63L66.48 192.63L63.48 207.63Z" />
					<g id="1">
						<path id="Forma 1" class="shp3" d="M1.92 216.71C1.91 216.72 1.91 216.73 1.9 216.74C1.9 216.74 1.9 216.75 1.9 216.75C1.89 216.76 1.89 216.77 1.89 216.77C1.89 216.78 1.88 216.78 1.88 216.79C1.88 216.8 1.88 216.8 1.87 216.81C1.87 216.82 1.87 216.82 1.86 216.83C1.86 216.84 1.86 216.84 1.86 216.85C1.86 216.86 1.86 216.86 1.85 216.87C1.85 216.88 1.85 216.88 1.85 216.89C1.85 216.9 1.84 216.91 1.84 216.91C1.84 216.92 1.84 216.92 1.84 216.93C1.84 216.94 1.84 216.94 1.83 216.95C1.83 216.96 1.83 216.96 1.83 216.97C1.83 216.98 1.83 216.99 1.83 217C1.83 217 1.82 217 1.82 217.01C1.82 217.01 1.82 217.01 1.82 217.01C1.82 217.02 1.82 217.03 1.82 217.03C1.82 217.04 1.82 217.05 1.82 217.06C1.82 217.06 1.82 217.07 1.82 217.08C1.82 217.09 1.82 217.09 1.82 217.1C1.82 217.1 1.82 217.11 1.82 217.11C1.82 217.12 1.82 217.13 1.82 217.14C1.82 217.15 1.82 217.15 1.82 217.16C1.82 217.16 1.82 217.17 1.82 217.17C1.82 217.17 1.82 217.18 1.82 217.19C1.82 217.19 1.82 217.19 1.82 217.2C1.82 217.21 1.83 217.22 1.83 217.23C1.83 217.24 1.83 217.24 1.83 217.25C1.83 217.26 1.83 217.27 1.83 217.27C1.83 217.27 1.84 217.28 1.84 217.28C1.84 217.29 1.84 217.3 1.84 217.31C1.85 217.32 1.85 217.33 1.85 217.34C1.85 217.34 1.85 217.35 1.85 217.35C1.86 217.37 1.86 217.38 1.87 217.39C1.87 217.4 1.87 217.41 1.88 217.42C1.88 217.42 1.88 217.43 1.88 217.43C1.89 217.44 1.89 217.45 1.9 217.46C1.9 217.47 1.91 217.48 1.91 217.49C1.91 217.5 1.91 217.5 1.92 217.51C1.92 217.51 1.92 217.51 1.92 217.52C1.93 217.53 1.93 217.53 1.94 217.54C1.94 217.55 1.95 217.56 1.95 217.57C1.95 217.57 1.96 217.57 1.96 217.58C1.97 217.59 1.97 217.6 1.98 217.61C1.99 217.62 1.99 217.63 2 217.63C2 217.64 2 217.64 2.01 217.64C2.02 217.65 2.03 217.67 2.04 217.68C2.04 217.68 2.05 217.69 2.05 217.69C2.05 217.7 2.06 217.7 2.06 217.71C2.07 217.71 2.07 217.72 2.08 217.72C2.08 217.73 2.09 217.73 2.09 217.74C2.1 217.74 2.1 217.75 2.11 217.75C2.11 217.75 2.12 217.76 2.12 217.76C2.13 217.77 2.13 217.77 2.14 217.77C2.15 217.78 2.15 217.79 2.16 217.79C2.16 217.79 2.17 217.8 2.17 217.8C2.18 217.81 2.18 217.81 2.19 217.81C2.2 217.82 2.2 217.82 2.2 217.82C2.21 217.83 2.22 217.83 2.23 217.84C2.23 217.84 2.24 217.84 2.24 217.85C2.25 217.85 2.25 217.85 2.26 217.86C2.27 217.86 2.27 217.86 2.28 217.86C2.28 217.87 2.29 217.87 2.3 217.88C2.3 217.88 2.31 217.88 2.32 217.88C2.32 217.89 2.33 217.89 2.34 217.89C2.34 217.89 2.35 217.9 2.35 217.9C2.36 217.9 2.37 217.9 2.37 217.91C2.38 217.91 2.39 217.91 2.39 217.91C2.4 217.92 2.41 217.92 2.41 217.92C2.42 217.92 2.42 217.92 2.43 217.93C2.44 217.93 2.44 217.93 2.45 217.93C2.46 217.93 2.47 217.94 2.48 217.94C2.48 217.94 2.49 217.94 2.49 217.94C2.5 217.94 2.5 217.94 2.51 217.95C2.52 217.95 2.53 217.95 2.53 217.95C2.54 217.95 2.55 217.95 2.56 217.95C2.56 217.95 2.57 217.95 2.57 217.95L2.58 217.96C2.58 217.96 2.58 217.96 2.58 217.96L62.21 224.99C62.21 224.99 62.21 224.99 62.21 224.99L62.21 224.99C62.22 224.99 62.22 224.99 62.22 224.99C62.25 224.99 62.27 224.99 62.3 224.99C62.31 224.99 62.32 224.99 62.33 224.99C62.35 224.99 62.36 224.99 62.38 224.99C62.39 224.99 62.41 224.99 62.42 224.98C62.44 224.98 62.45 224.98 62.46 224.98C62.48 224.98 62.49 224.97 62.5 224.97C62.52 224.97 62.53 224.96 62.55 224.96C62.56 224.96 62.57 224.95 62.58 224.95C62.6 224.94 62.61 224.94 62.62 224.93C62.64 224.93 62.65 224.92 62.66 224.92C62.67 224.91 62.69 224.91 62.7 224.9C62.71 224.89 62.73 224.88 62.74 224.88C62.75 224.87 62.76 224.86 62.77 224.86C62.79 224.85 62.81 224.83 62.83 224.82C62.83 224.82 62.84 224.81 62.84 224.81C62.84 224.81 62.84 224.81 62.84 224.81C62.86 224.79 62.88 224.77 62.91 224.75C62.91 224.75 62.92 224.74 62.93 224.73C62.94 224.72 62.95 224.71 62.96 224.69C62.97 224.68 62.98 224.67 62.99 224.66C63 224.65 63.01 224.64 63.01 224.63C63.02 224.62 63.03 224.6 63.04 224.59C63.04 224.58 63.05 224.57 63.06 224.56C63.06 224.55 63.07 224.53 63.08 224.52C63.08 224.51 63.09 224.5 63.1 224.48C63.1 224.47 63.1 224.46 63.11 224.45C63.11 224.43 63.12 224.42 63.13 224.4C63.13 224.39 63.13 224.37 63.14 224.36C63.14 224.35 63.14 224.34 63.15 224.32C63.15 224.3 63.16 224.27 63.16 224.24C63.16 224.24 63.16 224.24 63.16 224.24C63.16 224.24 63.16 224.24 63.16 224.24C63.17 224.2 63.17 224.16 63.17 224.12C63.17 224.11 63.17 224.1 63.17 224.09C63.16 224.06 63.16 224.02 63.15 223.98C63.15 223.97 63.15 223.97 63.15 223.96C63.14 223.92 63.13 223.89 63.12 223.86C63.12 223.85 63.12 223.85 63.12 223.84C63.1 223.81 63.09 223.77 63.07 223.74C63.07 223.73 63.06 223.73 63.06 223.72C63.04 223.69 63.02 223.66 63.01 223.64C63 223.63 63 223.63 62.99 223.62C62.99 223.62 62.99 223.61 62.99 223.61L56.12 214.82C55.57 214.12 55.39 213.2 55.63 212.34L60.21 196.26C60.21 196.25 60.21 196.25 60.21 196.25C60.22 196.21 60.23 196.17 60.23 196.13C60.23 196.12 60.23 196.12 60.23 196.11C60.24 196.08 60.24 196.04 60.24 196C60.24 196 60.24 195.99 60.24 195.99C60.24 195.95 60.23 195.91 60.23 195.87C60.22 195.87 60.22 195.86 60.22 195.85C60.22 195.82 60.21 195.79 60.2 195.75C60.19 195.75 60.19 195.74 60.19 195.74C60.19 195.73 60.19 195.73 60.19 195.73C60.18 195.69 60.16 195.66 60.14 195.63C60.14 195.63 60.14 195.62 60.13 195.61C60.1 195.54 60.05 195.48 59.99 195.42C59.99 195.42 59.99 195.41 59.98 195.41C59.95 195.38 59.92 195.36 59.89 195.33C59.89 195.33 59.89 195.33 59.89 195.33C59.88 195.33 59.88 195.33 59.88 195.32C59.84 195.3 59.81 195.28 59.78 195.26C59.78 195.26 59.77 195.26 59.77 195.26C59.77 195.26 59.77 195.26 59.76 195.26C59.73 195.24 59.7 195.23 59.66 195.22C59.66 195.21 59.65 195.21 59.64 195.21C59.6 195.2 59.56 195.19 59.53 195.18C59.53 195.18 59.52 195.18 59.52 195.18C59.48 195.17 59.45 195.17 59.41 195.17C59.4 195.17 59.39 195.17 59.39 195.17C59.31 195.17 59.23 195.18 59.16 195.2C59.15 195.21 59.14 195.21 59.13 195.21C59.12 195.22 59.1 195.22 59.09 195.22L47.98 199.36L43.29 183.02C43.29 183.02 43.29 183.01 43.29 183.01C43.28 182.99 43.27 182.97 43.26 182.95C43.26 182.94 43.26 182.94 43.26 182.93C43.25 182.91 43.24 182.89 43.23 182.88C43.23 182.87 43.22 182.86 43.22 182.85C43.21 182.84 43.21 182.83 43.2 182.82C43.19 182.8 43.18 182.79 43.17 182.77C43.17 182.77 43.17 182.77 43.17 182.77C43.15 182.74 43.14 182.72 43.12 182.7C43.12 182.7 43.12 182.7 43.12 182.7C43.12 182.7 43.12 182.7 43.11 182.7C43.1 182.68 43.08 182.66 43.06 182.64C43.05 182.63 43.04 182.62 43.03 182.61C43.02 182.6 43.01 182.59 43 182.59C42.96 182.55 42.91 182.52 42.86 182.5C42.86 182.5 42.86 182.49 42.85 182.49C42.82 182.48 42.79 182.47 42.76 182.45C42.75 182.45 42.74 182.45 42.73 182.45C42.7 182.43 42.66 182.42 42.63 182.42C42.62 182.42 42.62 182.42 42.62 182.42C42.58 182.41 42.55 182.41 42.51 182.4C42.51 182.4 42.5 182.4 42.5 182.4C42.46 182.4 42.42 182.4 42.39 182.41C42.38 182.41 42.37 182.41 42.37 182.41C42.34 182.41 42.31 182.42 42.28 182.43C42.27 182.43 42.26 182.43 42.25 182.43C42.24 182.44 42.24 182.44 42.23 182.44C42.2 182.45 42.17 182.46 42.15 182.47C42.14 182.47 42.13 182.47 42.12 182.48C42.09 182.49 42.07 182.51 42.04 182.52C42.03 182.53 42.02 182.53 42.02 182.53C41.98 182.56 41.95 182.58 41.92 182.6C41.92 182.6 41.92 182.61 41.92 182.61L2.13 216.45C2.12 216.46 2.11 216.46 2.1 216.47C2.1 216.48 2.09 216.48 2.09 216.49C2.08 216.49 2.08 216.5 2.07 216.5C2.07 216.51 2.06 216.51 2.06 216.52C2.05 216.52 2.05 216.53 2.05 216.53C2.04 216.54 2.04 216.54 2.03 216.55C2.03 216.55 2.02 216.56 2.02 216.56C2.01 216.57 2.01 216.57 2.01 216.58C2 216.58 2 216.59 1.99 216.6C1.99 216.6 1.98 216.6 1.98 216.61C1.98 216.62 1.97 216.62 1.97 216.63C1.96 216.63 1.96 216.64 1.96 216.64C1.95 216.65 1.95 216.66 1.94 216.67C1.94 216.67 1.94 216.67 1.93 216.68C1.93 216.69 1.93 216.69 1.92 216.7C1.92 216.71 1.92 216.71 1.92 216.71ZM53.83 213.07L48.99 213.37C48.52 213.4 48.16 213.8 48.19 214.27C48.22 214.74 48.62 215.1 49.09 215.07L54.14 214.76C54.29 215.15 54.51 215.53 54.77 215.87L60.38 223.05L12.19 217.37L45.45 215.3C45.92 215.27 46.28 214.86 46.25 214.39C46.24 214.08 46.05 213.82 45.79 213.69C45.66 213.62 45.51 213.58 45.35 213.59L9.73 215.81L30.3 209.44C30.75 209.3 31.01 208.82 30.87 208.37C30.8 208.14 30.64 207.97 30.44 207.86C30.25 207.77 30.03 207.74 29.8 207.81L6.39 215.06L42.01 184.76L46.82 201.47C46.91 201.82 47.07 202.13 47.28 202.39L33.54 206.65C33.09 206.79 32.84 207.27 32.97 207.72C33.11 208.17 33.59 208.42 34.04 208.28L50.22 203.27C50.26 203.26 50.29 203.24 50.32 203.23C50.52 203.15 50.71 203.05 50.89 202.93L57.92 198.07L54 211.88C53.88 212.27 53.83 212.67 53.83 213.07ZM53.29 199.2L49.93 201.52C49.67 201.7 49.35 201.75 49.05 201.64C48.76 201.53 48.54 201.3 48.45 201L48.45 201L53.29 199.2Z" />
					</g>
				</g>
			</g>
		</g>
	</g>
</svg>